<?xml version="1.0" encoding="UTF-8"?>
<svg xmlns="http://www.w3.org/2000/svg" viewBox="0 0 660 341" role="img" aria-label="بیزدوار گروپ — آژانس دیجیتال و صنعتی">
  <defs>
    <linearGradient id="bg" x1="0%" y1="0%" x2="100%" y2="100%">
      <stop offset="0%" stop-color="#16163f"/>
      <stop offset="100%" stop-color="#2a2a6a"/>
    </linearGradient>
    <linearGradient id="panel" x1="0%" y1="0%" x2="0%" y2="100%">
      <stop offset="0%" stop-color="#ffffff" stop-opacity="0.14"/>
      <stop offset="100%" stop-color="#ffffff" stop-opacity="0.04"/>
    </linearGradient>
  </defs>
  <rect width="660" height="341" fill="url(#bg)" rx="16"/>
  <circle cx="560" cy="72" r="110" fill="#FFDE00" opacity="0.1"/>
  <circle cx="88" cy="260" r="70" fill="#E62833" opacity="0.12"/>

  <rect x="36" y="44" width="148" height="96" rx="10" fill="url(#panel)" stroke="#ffffff" stroke-opacity="0.12"/>
  <rect x="48" y="58" width="72" height="8" rx="4" fill="#FFDE00" opacity="0.85"/>
  <rect x="48" y="74" width="108" height="6" rx="3" fill="#ffffff" opacity="0.35"/>
  <rect x="48" y="88" width="92" height="6" rx="3" fill="#ffffff" opacity="0.25"/>
  <rect x="48" y="108" width="36" height="22" rx="4" fill="#E62833" opacity="0.75"/>
  <rect x="90" y="108" width="36" height="22" rx="4" fill="#FFDE00" opacity="0.55"/>

  <rect x="476" y="52" width="148" height="112" rx="10" fill="url(#panel)" stroke="#ffffff" stroke-opacity="0.12"/>
  <circle cx="550" cy="92" r="22" fill="none" stroke="#FFDE00" stroke-width="3" opacity="0.8"/>
  <circle cx="550" cy="92" r="8" fill="#FFDE00" opacity="0.6"/>
  <rect x="494" y="124" width="52" height="6" rx="3" fill="#ffffff" opacity="0.35"/>
  <rect x="494" y="138" width="88" height="6" rx="3" fill="#ffffff" opacity="0.22"/>

  <path d="M200 248 L240 208 L280 228 L330 178 L380 218 L430 188 L480 238" fill="none" stroke="#FFDE00" stroke-width="2.5" opacity="0.55" stroke-linecap="round" stroke-linejoin="round"/>

  <text x="330" y="168" text-anchor="middle" fill="#FFDE00" font-family="Segoe UI,Tahoma,sans-serif" font-size="38" font-weight="700">Bizdavar Group</text>
  <text x="330" y="210" text-anchor="middle" fill="#ffffff" font-family="Tahoma,sans-serif" font-size="21" font-weight="600">آژانس دیجیتال و صنعتی</text>
  <text x="330" y="244" text-anchor="middle" fill="#ffffff" font-family="Tahoma,sans-serif" font-size="15" opacity="0.72">پروژه‌های بین‌المللی در ۱۱ کشور</text>
</svg>
