<svg xmlns="http://www.w3.org/2000/svg" viewBox="0 0 768 387" role="img" aria-label="Bizdavar Group — international collaboration">
  <defs>
    <linearGradient id="bg" x1="0%" y1="0%" x2="100%" y2="100%">
      <stop offset="0%" stop-color="#16163f"/>
      <stop offset="100%" stop-color="#2a2a6a"/>
    </linearGradient>
    <linearGradient id="accent" x1="0%" y1="0%" x2="100%" y2="0%">
      <stop offset="0%" stop-color="#FFDE00"/>
      <stop offset="100%" stop-color="#f5c400"/>
    </linearGradient>
  </defs>
  <rect width="768" height="387" fill="url(#bg)" rx="16"/>
  <circle cx="620" cy="90" r="110" fill="#FFDE00" opacity="0.07"/>
  <circle cx="680" cy="300" r="70" fill="#25D366" opacity="0.12"/>
  <circle cx="200" cy="194" r="88" fill="none" stroke="#FFDE00" stroke-width="2" opacity="0.55"/>
  <ellipse cx="200" cy="194" rx="88" ry="34" fill="none" stroke="#fff" stroke-width="1.5" opacity="0.28"/>
  <line x1="112" y1="194" x2="288" y2="194" stroke="#fff" stroke-width="1.5" opacity="0.28"/>
  <line x1="200" y1="106" x2="200" y2="282" stroke="#fff" stroke-width="1.5" opacity="0.2"/>
  <circle cx="200" cy="120" r="6" fill="#FFDE00"/>
  <circle cx="260" cy="160" r="5" fill="#25D366"/>
  <circle cx="140" cy="230" r="5" fill="#FFDE00" opacity="0.8"/>
  <text x="380" y="118" fill="url(#accent)" font-family="Tahoma,Segoe UI,sans-serif" font-size="30" font-weight="700">Bizdavar Group</text>
  <text x="380" y="162" fill="#fff" font-family="Tahoma,Segoe UI,sans-serif" font-size="19" opacity="0.92">Iran · Turkey · International</text>
  <text x="380" y="198" fill="#fff" font-family="Tahoma,Segoe UI,sans-serif" font-size="15" opacity="0.72">Digital marketing · Web · Industrial supply</text>
  <rect x="380" y="232" width="330" height="46" rx="23" fill="rgba(255,255,255,0.08)" stroke="rgba(255,222,0,0.35)" stroke-width="1"/>
  <text x="545" y="261" text-anchor="middle" fill="#FFDE00" font-family="Tahoma,Segoe UI,sans-serif" font-size="17" font-weight="600">info@bizdavar.com</text>
  <rect x="380" y="296" width="148" height="36" rx="18" fill="#25D366"/>
  <text x="454" y="319" text-anchor="middle" fill="#fff" font-family="Tahoma,Segoe UI,sans-serif" font-size="13" font-weight="600">WhatsApp</text>
</svg>
