<svg xmlns="http://www.w3.org/2000/svg" viewBox="0 0 800 280" role="img" aria-label="Fast Web Studio — launch your website in 5 days">
  <defs>
    <linearGradient id="g" x1="0" y1="0" x2="1" y2="0">
      <stop offset="0%" stop-color="#1e40af"/>
      <stop offset="100%" stop-color="#3b82f6"/>
    </linearGradient>
  </defs>
  <rect width="800" height="280" rx="24" fill="#0f172a"/>
  <path d="M0 180 C160 120 240 220 400 160 S640 80 800 140 L800 280 L0 280 Z" fill="#1e3a8a" opacity="0.55"/>
  <text x="40" y="56" fill="#93c5fd" font-family="Segoe UI, Arial, sans-serif" font-size="14" font-weight="700" letter-spacing="2">FAST DELIVERY</text>
  <text x="40" y="100" fill="#fff" font-family="Segoe UI, Arial, sans-serif" font-size="34" font-weight="800">Your site live in 5 days</text>
  <text x="40" y="140" fill="#cbd5e1" font-family="Segoe UI, Arial, sans-serif" font-size="16">Fixed pricing · responsive UI · forms &amp; WhatsApp · SEO basics</text>
  <g fill="#fff">
    <rect x="40" y="180" width="140" height="48" rx="12" fill="url(#g)"/>
    <text x="110" y="210" text-anchor="middle" font-family="Segoe UI, Arial, sans-serif" font-size="15" font-weight="700">Fast Studio</text>
    <rect x="196" y="180" width="140" height="48" rx="12" fill="#334155"/>
    <text x="266" y="210" text-anchor="middle" font-family="Segoe UI, Arial, sans-serif" font-size="15" font-weight="700">From $99</text>
    <rect x="352" y="180" width="160" height="48" rx="12" fill="#334155"/>
    <text x="432" y="210" text-anchor="middle" font-family="Segoe UI, Arial, sans-serif" font-size="15" font-weight="700">RTL / Multilingual</text>
  </g>
  <circle cx="680" cy="120" r="64" fill="#fbbf24"/>
  <path d="M655 120 L680 95 L705 120 L690 120 L690 150 L670 150 L670 120 Z" fill="#1e3a8a"/>
</svg>
