<?xml version="1.0" encoding="UTF-8"?>
<svg xmlns="http://www.w3.org/2000/svg" viewBox="0 0 560 260" role="img" aria-label="Bizdavar digital growth dashboard">
  <defs>
    <linearGradient id="heroBg" x1="0%" y1="0%" x2="100%" y2="100%">
      <stop offset="0%" stop-color="#12123a"/>
      <stop offset="55%" stop-color="#1e1e52"/>
      <stop offset="100%" stop-color="#2a2a6a"/>
    </linearGradient>
    <linearGradient id="cardGlow" x1="0%" y1="0%" x2="100%" y2="0%">
      <stop offset="0%" stop-color="#FFDE00" stop-opacity="0.15"/>
      <stop offset="100%" stop-color="#FFDE00" stop-opacity="0"/>
    </linearGradient>
    <linearGradient id="barGrad" x1="0%" y1="100%" x2="0%" y2="0%">
      <stop offset="0%" stop-color="#FFDE00" stop-opacity="0.55"/>
      <stop offset="100%" stop-color="#FFDE00"/>
    </linearGradient>
    <filter id="softGlow" x="-20%" y="-20%" width="140%" height="140%">
      <feGaussianBlur stdDeviation="8" result="blur"/>
      <feMerge>
        <feMergeNode in="blur"/>
        <feMergeNode in="SourceGraphic"/>
      </feMerge>
    </filter>
  </defs>

  <rect width="560" height="260" rx="14" fill="url(#heroBg)"/>
  <rect width="560" height="260" rx="14" fill="url(#cardGlow)"/>

  <circle cx="480" cy="42" r="56" fill="#FFDE00" opacity="0.06"/>
  <circle cx="52" cy="210" r="40" fill="#E62833" opacity="0.07"/>

  <g opacity="0.9" transform="translate(368 48)">
    <circle cx="72" cy="72" r="58" fill="none" stroke="#FFDE00" stroke-width="1.2" opacity="0.35"/>
    <ellipse cx="72" cy="72" rx="58" ry="22" fill="none" stroke="#ffffff" stroke-width="0.8" opacity="0.18"/>
    <ellipse cx="72" cy="72" rx="22" ry="58" fill="none" stroke="#ffffff" stroke-width="0.8" opacity="0.18"/>
    <path d="M14 72 H130 M72 14 V130" stroke="#ffffff" stroke-width="0.6" opacity="0.12"/>
    <circle cx="42" cy="52" r="5" fill="#FFDE00"/>
    <circle cx="108" cy="64" r="4" fill="#FFDE00" opacity="0.85"/>
    <circle cx="88" cy="108" r="4.5" fill="#FFDE00"/>
    <circle cx="34" cy="96" r="3.5" fill="#ffffff" opacity="0.7"/>
    <line x1="42" y1="52" x2="88" y2="108" stroke="#FFDE00" stroke-width="1" opacity="0.45"/>
    <line x1="108" y1="64" x2="88" y2="108" stroke="#FFDE00" stroke-width="1" opacity="0.35"/>
    <line x1="42" y1="52" x2="108" y2="64" stroke="#ffffff" stroke-width="0.8" opacity="0.2"/>
  </g>

  <g transform="translate(28 36)">
    <rect width="300" height="188" rx="12" fill="#0f0f2e" stroke="#ffffff" stroke-opacity="0.12" stroke-width="1"/>
    <rect x="0" y="0" width="300" height="34" rx="12" fill="#1a1a45"/>
    <rect x="0" y="22" width="300" height="12" fill="#1a1a45"/>
    <circle cx="18" cy="17" r="4" fill="#E62833" opacity="0.85"/>
    <circle cx="34" cy="17" r="4" fill="#FFDE00" opacity="0.85"/>
    <circle cx="50" cy="17" r="4" fill="#34d399" opacity="0.75"/>
    <rect x="72" y="10" width="120" height="14" rx="7" fill="#ffffff" opacity="0.08"/>

    <rect x="28" y="118" width="28" height="44" rx="4" fill="url(#barGrad)" opacity="0.55"/>
    <rect x="68" y="98" width="28" height="64" rx="4" fill="url(#barGrad)" opacity="0.7"/>
    <rect x="108" y="82" width="28" height="80" rx="4" fill="url(#barGrad)" opacity="0.85"/>
    <rect x="148" y="64" width="28" height="98" rx="4" fill="url(#barGrad)"/>
    <rect x="188" y="48" width="28" height="114" rx="4" fill="url(#barGrad)"/>

    <polyline points="36,150 76,132 116,118 156,96 196,72 236,58" fill="none" stroke="#ffffff" stroke-width="2.2" stroke-linecap="round" stroke-linejoin="round" opacity="0.75"/>
    <circle cx="236" cy="58" r="5" fill="#FFDE00" filter="url(#softGlow)"/>

    <rect x="28" y="48" width="92" height="26" rx="13" fill="#FFDE00" opacity="0.14"/>
    <rect x="130" y="48" width="78" height="26" rx="13" fill="#ffffff" opacity="0.07"/>
    <text x="42" y="65" fill="#FFDE00" font-family="Segoe UI,Arial,sans-serif" font-size="11" font-weight="700">+100 Projects</text>
    <text x="144" y="65" fill="#ffffff" font-family="Segoe UI,Arial,sans-serif" font-size="11" font-weight="600" opacity="0.8">11 Countries</text>
  </g>

  <g transform="translate(28 214)">
    <rect width="152" height="30" rx="15" fill="#ffffff" opacity="0.06"/>
    <rect x="168" width="132" height="30" rx="15" fill="#ffffff" opacity="0.06"/>
    <rect x="312" width="132" height="30" rx="15" fill="#ffffff" opacity="0.06"/>

    <path d="M22 22 L14 18 V26 Z M22 22 L30 16 V28 Z" fill="#FFDE00"/>
    <rect x="30" y="19" width="6" height="6" rx="1" fill="#FFDE00" opacity="0.8"/>
    <text x="44" y="20" fill="#ffffff" font-family="Segoe UI,Arial,sans-serif" font-size="10" font-weight="600" opacity="0.85">Digital</text>

    <path d="M186 24 L180 20 L180 28 Z M202 20 L208 24 L202 28 Z M194 18 L198 30" stroke="#FFDE00" stroke-width="1.6" fill="none" stroke-linecap="round"/>
    <text x="218" y="20" fill="#ffffff" font-family="Segoe UI,Arial,sans-serif" font-size="10" font-weight="600" opacity="0.85">Web</text>

    <circle cx="332" cy="22" r="7" fill="none" stroke="#FFDE00" stroke-width="1.4"/>
    <circle cx="332" cy="22" r="3" fill="#FFDE00"/>
    <text x="346" y="20" fill="#ffffff" font-family="Segoe UI,Arial,sans-serif" font-size="10" font-weight="600" opacity="0.85">Industry</text>
  </g>
</svg>
