<?xml version="1.0" encoding="UTF-8"?>
<svg xmlns="http://www.w3.org/2000/svg" viewBox="0 0 480 300" role="img" aria-label="Bizdavar global presence map">
  <defs>
    <linearGradient id="mapBg" x1="0%" y1="0%" x2="100%" y2="100%">
      <stop offset="0%" stop-color="#16163f"/>
      <stop offset="100%" stop-color="#2a2a6a"/>
    </linearGradient>
    <radialGradient id="hubGlow" cx="50%" cy="50%" r="50%">
      <stop offset="0%" stop-color="#FFDE00" stop-opacity="0.35"/>
      <stop offset="100%" stop-color="#FFDE00" stop-opacity="0"/>
    </radialGradient>
  </defs>

  <rect width="480" height="300" rx="16" fill="url(#mapBg)"/>

  <ellipse cx="240" cy="150" rx="200" ry="110" fill="none" stroke="#ffffff" stroke-width="1" opacity="0.08"/>
  <ellipse cx="240" cy="150" rx="150" ry="82" fill="none" stroke="#ffffff" stroke-width="0.8" opacity="0.06"/>

  <line x1="95" y1="118" x2="210" y2="132" stroke="#FFDE00" stroke-width="1.2" opacity="0.35"/>
  <line x1="210" y1="132" x2="330" y2="108" stroke="#FFDE00" stroke-width="1.2" opacity="0.35"/>
  <line x1="210" y1="132" x2="175" y2="198" stroke="#FFDE00" stroke-width="1.2" opacity="0.35"/>
  <line x1="175" y1="198" x2="95" y2="118" stroke="#FFDE00" stroke-width="1" opacity="0.25"/>
  <line x1="330" y1="108" x2="390" y2="88" stroke="#ffffff" stroke-width="0.8" opacity="0.2"/>
  <line x1="330" y1="108" x2="355" y2="175" stroke="#ffffff" stroke-width="0.8" opacity="0.2"/>
  <line x1="95" y1="118" x2="55" y2="95" stroke="#ffffff" stroke-width="0.8" opacity="0.2"/>

  <circle cx="210" cy="132" r="34" fill="url(#hubGlow)"/>
  <circle cx="210" cy="132" r="10" fill="#FFDE00"/>
  <circle cx="210" cy="132" r="16" fill="none" stroke="#FFDE00" stroke-width="1.5" opacity="0.5"/>

  <circle cx="95" cy="118" r="7" fill="#FFDE00" opacity="0.9"/>
  <circle cx="175" cy="198" r="7" fill="#FFDE00" opacity="0.9"/>
  <circle cx="330" cy="108" r="6" fill="#ffffff" opacity="0.75"/>
  <circle cx="390" cy="88" r="5" fill="#ffffff" opacity="0.6"/>
  <circle cx="355" cy="175" r="5" fill="#ffffff" opacity="0.6"/>
  <circle cx="55" cy="95" r="5" fill="#ffffff" opacity="0.55"/>
  <circle cx="120" cy="72" r="4" fill="#ffffff" opacity="0.45"/>
  <circle cx="280" cy="68" r="4" fill="#ffffff" opacity="0.45"/>
  <circle cx="410" cy="140" r="4" fill="#E62833" opacity="0.7"/>

  <text x="210" y="158" text-anchor="middle" fill="#FFDE00" font-family="Segoe UI,Arial,sans-serif" font-size="10" font-weight="700">TR Hub</text>
  <text x="95" y="136" text-anchor="middle" fill="#ffffff" font-family="Segoe UI,Arial,sans-serif" font-size="9" opacity="0.75">IR</text>
  <text x="175" y="216" text-anchor="middle" fill="#ffffff" font-family="Segoe UI,Arial,sans-serif" font-size="9" opacity="0.75">AM</text>

  <text x="240" y="28" text-anchor="middle" fill="#ffffff" font-family="Segoe UI,Arial,sans-serif" font-size="13" font-weight="700" opacity="0.9">11 Countries</text>
  <text x="240" y="278" text-anchor="middle" fill="#ffffff" font-family="Segoe UI,Arial,sans-serif" font-size="10" opacity="0.55">MENA | Europe | Americas</text>
</svg>
