<svg xmlns="http://www.w3.org/2000/svg" viewBox="0 0 240 144" width="240" height="144" aria-hidden="true">
  <defs>
    <linearGradient id="fastBg" x1="0%" y1="0%" x2="100%" y2="100%">
      <stop offset="0%" stop-color="#12123a"/>
      <stop offset="55%" stop-color="#1e3a5f"/>
      <stop offset="100%" stop-color="#2563eb"/>
    </linearGradient>
    <linearGradient id="fastScreen" x1="0%" y1="0%" x2="0%" y2="100%">
      <stop offset="0%" stop-color="#f8fafc"/>
      <stop offset="100%" stop-color="#e2e8f0"/>
    </linearGradient>
  </defs>
  <rect width="240" height="144" rx="14" fill="url(#fastBg)"/>
  <circle cx="208" cy="28" r="22" fill="#FFDE00" opacity="0.12"/>
  <circle cx="28" cy="118" r="16" fill="#E62833" opacity="0.14"/>
  <rect x="28" y="22" width="184" height="100" rx="10" fill="#0f172a" opacity="0.35"/>
  <rect x="36" y="30" width="168" height="84" rx="8" fill="url(#fastScreen)" stroke="#fff" stroke-opacity="0.28" stroke-width="1.5"/>
  <rect x="36" y="30" width="168" height="16" rx="8" fill="#16163f"/>
  <rect x="36" y="38" width="168" height="8" fill="#16163f"/>
  <circle cx="48" cy="38" r="3" fill="#E62833"/>
  <circle cx="58" cy="38" r="3" fill="#FFDE00"/>
  <circle cx="68" cy="38" r="3" fill="#10b981"/>
  <rect x="48" y="54" width="56" height="7" rx="3.5" fill="#16163f" opacity="0.85"/>
  <rect x="48" y="66" width="88" height="4" rx="2" fill="#94a3b8"/>
  <rect x="48" y="76" width="72" height="4" rx="2" fill="#cbd5e1"/>
  <rect x="48" y="90" width="40" height="12" rx="6" fill="#E62833"/>
  <rect x="132" y="54" width="60" height="48" rx="7" fill="#dbeafe" stroke="#93c5fd" stroke-width="1"/>
  <rect x="142" y="64" width="40" height="4" rx="2" fill="#2563eb" opacity="0.35"/>
  <rect x="142" y="74" width="32" height="4" rx="2" fill="#2563eb" opacity="0.22"/>
  <rect x="142" y="88" width="28" height="10" rx="5" fill="#FFDE00"/>
  <rect x="176" y="18" width="36" height="18" rx="9" fill="#FFDE00" opacity="0.95"/>
  <rect x="184" y="25" width="20" height="4" rx="2" fill="#16163f" opacity="0.55"/>
</svg>
