<svg xmlns="http://www.w3.org/2000/svg" viewBox="0 0 240 144" width="240" height="144" aria-hidden="true">
  <defs>
    <linearGradient id="portBg" x1="0%" y1="0%" x2="100%" y2="100%">
      <stop offset="0%" stop-color="#eef2ff"/>
      <stop offset="100%" stop-color="#f8fafc"/>
    </linearGradient>
    <linearGradient id="portHero" x1="0%" y1="0%" x2="100%" y2="100%">
      <stop offset="0%" stop-color="#16163f"/>
      <stop offset="100%" stop-color="#2a2a6a"/>
    </linearGradient>
  </defs>
  <rect width="240" height="144" rx="14" fill="url(#portBg)"/>
  <rect x="18" y="18" width="108" height="108" rx="10" fill="#fff" stroke="#dbeafe" stroke-width="1.5"/>
  <rect x="26" y="26" width="92" height="52" rx="8" fill="url(#portHero)"/>
  <rect x="34" y="38" width="36" height="6" rx="3" fill="#FFDE00" opacity="0.9"/>
  <rect x="34" y="50" width="56" height="4" rx="2" fill="#fff" opacity="0.35"/>
  <rect x="34" y="60" width="44" height="4" rx="2" fill="#fff" opacity="0.22"/>
  <rect x="26" y="86" width="44" height="6" rx="3" fill="#16163f" opacity="0.75"/>
  <rect x="26" y="98" width="64" height="4" rx="2" fill="#94a3b8"/>
  <rect x="26" y="108" width="52" height="4" rx="2" fill="#cbd5e1"/>
  <rect x="136" y="18" width="86" height="50" rx="10" fill="#fff" stroke="#fecaca" stroke-width="1.5"/>
  <rect x="144" y="26" width="70" height="26" rx="6" fill="#E62833" opacity="0.12"/>
  <circle cx="162" cy="39" r="10" fill="#E62833" opacity="0.35"/>
  <rect x="144" y="58" width="48" height="5" rx="2.5" fill="#16163f" opacity="0.7"/>
  <rect x="136" y="76" width="86" height="50" rx="10" fill="#fff" stroke="#bbf7d0" stroke-width="1.5"/>
  <rect x="144" y="84" width="70" height="26" rx="6" fill="#10b981" opacity="0.14"/>
  <rect x="152" y="92" width="24" height="10" rx="5" fill="#059669" opacity="0.45"/>
  <rect x="144" y="116" width="52" height="5" rx="2.5" fill="#16163f" opacity="0.55"/>
  <rect x="198" y="22" width="24" height="24" rx="12" fill="#FFDE00" opacity="0.95"/>
  <rect x="206" y="30" width="8" height="8" rx="2" fill="#16163f" opacity="0.45"/>
</svg>
