<svg xmlns="http://www.w3.org/2000/svg" viewBox="0 0 480 320" width="480" height="320" role="img" aria-hidden="true">
  <defs>
    <linearGradient id="smmBg" x1="0" y1="0" x2="1" y2="1">
      <stop offset="0%" stop-color="#7f1d1d"/>
      <stop offset="50%" stop-color="#dc2626"/>
      <stop offset="100%" stop-color="#f97316"/>
    </linearGradient>
  </defs>
  <rect width="480" height="320" rx="20" fill="url(#smmBg)"/>
  <rect x="164" y="24" width="152" height="272" rx="22" fill="#0f172a" stroke="#fff" stroke-opacity="0.25" stroke-width="2"/>
  <rect x="172" y="40" width="136" height="240" rx="14" fill="#111827"/>
  <rect x="208" y="52" width="64" height="8" rx="4" fill="#374151"/>
  <rect x="184" y="72" width="112" height="112" rx="12" fill="#1f2937"/>
  <circle cx="240" cy="128" r="28" fill="#E62833" opacity="0.85"/>
  <path d="M228 128l8 8 16-16" stroke="#fff" stroke-width="4" fill="none" stroke-linecap="round" stroke-linejoin="round"/>
  <rect x="184" y="196" width="88" height="8" rx="4" fill="#4b5563"/>
  <rect x="184" y="212" width="112" height="8" rx="4" fill="#374151"/>
  <rect x="184" y="236" width="72" height="22" rx="11" fill="#FFDE00"/>
  <g transform="translate(56 88)">
    <rect width="88" height="56" rx="12" fill="#fff" opacity="0.95"/>
    <text x="44" y="24" text-anchor="middle" font-family="Segoe UI, sans-serif" font-size="11" fill="#E62833" font-weight="700">Instagram</text>
    <text x="44" y="42" text-anchor="middle" font-family="Segoe UI, sans-serif" font-size="10" fill="#64748b">Content · Ads</text>
  </g>
  <g transform="translate(336 120)">
    <rect width="88" height="56" rx="12" fill="#fff" opacity="0.95"/>
    <text x="44" y="24" text-anchor="middle" font-family="Segoe UI, sans-serif" font-size="11" fill="#2563eb" font-weight="700">LinkedIn</text>
    <text x="44" y="42" text-anchor="middle" font-family="Segoe UI, sans-serif" font-size="10" fill="#64748b">B2B · SMM</text>
  </g>
  <g transform="translate(72 200)">
    <rect width="76" height="48" rx="10" fill="#fff" opacity="0.9"/>
    <text x="38" y="30" text-anchor="middle" font-family="Segoe UI, sans-serif" font-size="10" fill="#64748b" font-weight="600">Paid Social</text>
  </g>
  <g transform="translate(332 210)">
    <rect width="76" height="48" rx="10" fill="#fff" opacity="0.9"/>
    <text x="38" y="30" text-anchor="middle" font-family="Segoe UI, sans-serif" font-size="10" fill="#64748b" font-weight="600">Analytics</text>
  </g>
</svg>
