<svg xmlns="http://www.w3.org/2000/svg" viewBox="0 0 480 320" width="480" height="320" aria-hidden="true">
  <defs>
    <linearGradient id="smmBg" x1="0%" y1="0%" x2="100%" y2="100%">
      <stop offset="0%" stop-color="#7f1d1d"/>
      <stop offset="50%" stop-color="#dc2626"/>
      <stop offset="100%" stop-color="#f97316"/>
    </linearGradient>
  </defs>
  <rect width="480" height="320" rx="20" fill="url(#smmBg)"/>
  <rect x="164" y="24" width="152" height="272" rx="22" fill="#0f172a" stroke="#fff" stroke-opacity="0.25" stroke-width="2"/>
  <rect x="172" y="40" width="136" height="240" rx="14" fill="#111827"/>
  <rect x="208" y="52" width="64" height="8" rx="4" fill="#374151"/>
  <rect x="184" y="72" width="112" height="112" rx="12" fill="#1f2937"/>
  <circle cx="240" cy="128" r="28" fill="#E62833" opacity="0.85"/>
  <path d="M228 128l8 8 16-16" stroke="#fff" stroke-width="4" fill="none" stroke-linecap="round" stroke-linejoin="round"/>
  <rect x="184" y="196" width="88" height="8" rx="4" fill="#4b5563"/>
  <rect x="184" y="212" width="112" height="8" rx="4" fill="#374151"/>
  <rect x="184" y="236" width="72" height="22" rx="11" fill="#FFDE00"/>
  <g transform="translate(56 88)">
    <rect width="88" height="56" rx="12" fill="#fff" opacity="0.95"/>
    <circle cx="22" cy="28" r="10" fill="#E62833" opacity="0.85"/>
    <rect x="38" y="18" width="40" height="6" rx="3" fill="#E62833" opacity="0.35"/>
    <rect x="38" y="30" width="32" height="5" rx="2.5" fill="#64748b" opacity="0.45"/>
  </g>
  <g transform="translate(336 120)">
    <rect width="88" height="56" rx="12" fill="#fff" opacity="0.95"/>
    <rect x="14" y="16" width="14" height="14" rx="3" fill="#2563eb"/>
    <rect x="32" y="18" width="42" height="6" rx="3" fill="#2563eb" opacity="0.35"/>
    <rect x="32" y="30" width="34" height="5" rx="2.5" fill="#64748b" opacity="0.45"/>
  </g>
  <g transform="translate(72 200)">
    <rect width="76" height="48" rx="10" fill="#fff" opacity="0.9"/>
    <rect x="14" y="18" width="48" height="6" rx="3" fill="#64748b" opacity="0.55"/>
    <rect x="14" y="30" width="32" height="5" rx="2.5" fill="#FFDE00" opacity="0.75"/>
  </g>
  <g transform="translate(332 210)">
    <rect width="76" height="48" rx="10" fill="#fff" opacity="0.9"/>
    <rect x="10" y="14" width="12" height="20" rx="2" fill="#2563eb" opacity="0.45"/>
    <rect x="26" y="20" width="12" height="14" rx="2" fill="#10b981" opacity="0.55"/>
    <rect x="42" y="10" width="12" height="24" rx="2" fill="#E62833" opacity="0.55"/>
  </g>
</svg>
