<svg xmlns="http://www.w3.org/2000/svg" xmlns:xlink="http://www.w3.org/1999/xlink" id="Layer_1" x="0px" y="0px" viewBox="0 0 331 110" style="enable-background:new 0 0 331 110;" xml:space="preserve"><style type="text/css">	.st0{fill:#A8AAAC;}	.st1{fill:#1E417C;}</style><g>	<g>		<path class="st0" d="M9.55,38.24c0-15.55,12.61-28.16,28.16-28.16c15.55,0,28.16,12.61,28.16,28.16   c0,15.55-12.61,28.16-28.16,28.16C22.16,66.4,9.55,53.79,9.55,38.24z"></path>	</g>	<path class="st1" d="M31.52,21.79c-0.49-0.95-1.15-2.36-1.54-3.68c-0.65-2.2,1.42-2.86,1.56-2.89c0.15-0.05,2.26-0.5,2.8,1.72  c0.32,1.34,0.45,2.89,0.51,3.96c0.37-0.06,0.75-0.11,1.14-0.15c-0.23-1.05-0.5-2.58-0.54-3.95c-0.06-2.29,2.11-2.4,2.26-2.39  c0.15-0.01,2.32,0.1,2.26,2.39c-0.03,1.37-0.31,2.91-0.53,3.95c0.38,0.04,0.76,0.09,1.13,0.15c0.05-1.07,0.18-2.62,0.51-3.96  c0.54-2.22,2.66-1.77,2.8-1.72c0.15,0.03,2.21,0.7,1.56,2.89c-0.39,1.32-1.05,2.73-1.54,3.68c0.36,0.13,0.71,0.28,1.06,0.44  c0.33-1.02,0.86-2.48,1.51-3.69c1.1-2.01,3.03-1.02,3.15-0.94c0.14,0.07,1.96,1.25,0.76,3.2c-0.72,1.17-1.72,2.37-2.44,3.16  c0.31,0.22,0.61,0.46,0.91,0.7c0.58-0.9,1.47-2.18,2.42-3.17c1.58-1.66,3.19-0.2,3.29-0.09c0.11,0.1,1.56,1.71-0.09,3.29  c-1,0.95-2.28,1.84-3.17,2.42c0.24,0.29,0.47,0.6,0.7,0.91c0.79-0.72,1.98-1.72,3.16-2.44c1.95-1.19,3.13,0.63,3.2,0.76  c0.08,0.13,1.07,2.06-0.94,3.15c-1.21,0.66-2.67,1.19-3.69,1.51c0.16,0.35,0.3,0.7,0.44,1.06c0.95-0.49,2.36-1.15,3.68-1.54  c2.19-0.65,2.86,1.42,2.89,1.56c0.05,0.14,0.5,2.26-1.72,2.8c-1.34,0.32-2.89,0.46-3.96,0.51c0.06,0.37,0.11,0.75,0.15,1.13  c1.04-0.22,2.58-0.5,3.95-0.53c2.29-0.06,2.4,2.11,2.39,2.26c0.01,0.15-0.1,2.32-2.39,2.26c-1.38-0.03-2.91-0.31-3.95-0.53  c-0.04,0.38-0.09,0.76-0.15,1.13c1.07,0.05,2.62,0.19,3.96,0.51c2.23,0.54,1.77,2.66,1.72,2.8c-0.03,0.15-0.7,2.21-2.89,1.56  c-1.32-0.39-2.73-1.05-3.68-1.54c-0.13,0.36-0.28,0.71-0.44,1.06c1.02,0.33,2.48,0.86,3.69,1.51c2.01,1.09,1.02,3.02,0.94,3.15  c-0.07,0.13-1.24,1.95-3.2,0.76c-1.17-0.72-2.36-1.72-3.16-2.44c-0.22,0.31-0.45,0.61-0.7,0.91c0.9,0.58,2.18,1.47,3.17,2.42  c1.66,1.58,0.2,3.19,0.09,3.29c-0.1,0.11-1.71,1.57-3.29-0.09c-0.95-1-1.84-2.28-2.42-3.17c-0.3,0.24-0.6,0.47-0.91,0.7  c0.72,0.79,1.72,1.98,2.44,3.16c1.19,1.95-0.63,3.13-0.76,3.2c-0.13,0.08-2.06,1.07-3.15-0.94c-0.66-1.21-1.19-2.67-1.51-3.69  c-0.35,0.16-0.7,0.3-1.06,0.44c0.49,0.95,1.15,2.36,1.54,3.68c0.65,2.2-1.41,2.86-1.56,2.89c-0.14,0.05-2.26,0.5-2.8-1.72  c-0.32-1.34-0.45-2.89-0.51-3.96c-0.37,0.06-0.75,0.11-1.13,0.15c0.22,1.05,0.5,2.58,0.53,3.95c0.06,2.29-2.11,2.4-2.26,2.39  c-0.15,0.01-2.32-0.1-2.26-2.39c0.03-1.37,0.31-2.91,0.53-3.95c-0.38-0.04-0.76-0.09-1.13-0.15c-0.05,1.07-0.18,2.62-0.51,3.96  c-0.54,2.22-2.66,1.77-2.8,1.72c-0.15-0.03-2.21-0.7-1.56-2.89c0.39-1.32,1.05-2.73,1.54-3.68c-0.36-0.13-0.71-0.28-1.06-0.44  c-0.33,1.02-0.86,2.48-1.51,3.69c-1.09,2.01-3.02,1.02-3.15,0.94c-0.13-0.07-1.95-1.25-0.76-3.2c0.72-1.17,1.72-2.36,2.44-3.16  c-0.31-0.22-0.61-0.45-0.9-0.7c-0.58,0.9-1.47,2.18-2.42,3.17c-1.58,1.66-3.19,0.2-3.29,0.09c-0.11-0.1-1.56-1.71,0.09-3.29  c1-0.95,2.28-1.84,3.17-2.42c-0.24-0.29-0.47-0.6-0.7-0.91c-0.79,0.72-1.99,1.72-3.16,2.44c-1.95,1.19-3.13-0.63-3.2-0.76  C17,50.02,16.01,48.09,18.02,47c1.21-0.66,2.67-1.19,3.69-1.51c-0.16-0.35-0.31-0.7-0.44-1.06c-0.95,0.49-2.36,1.15-3.68,1.54  c-2.2,0.65-2.86-1.42-2.89-1.56c-0.05-0.14-0.5-2.26,1.72-2.8c1.34-0.32,2.89-0.46,3.96-0.51c-0.06-0.37-0.11-0.75-0.15-1.13  c-1.05,0.23-2.58,0.5-3.95,0.53c-2.29,0.06-2.4-2.11-2.39-2.26c-0.01-0.15,0.1-2.32,2.39-2.26c1.37,0.03,2.91,0.31,3.95,0.53  c0.04-0.38,0.09-0.76,0.15-1.13c-1.07-0.05-2.62-0.18-3.96-0.51c-2.22-0.54-1.77-2.66-1.72-2.8c0.03-0.15,0.7-2.21,2.89-1.56  c1.32,0.39,2.73,1.05,3.68,1.54c0.13-0.36,0.28-0.71,0.44-1.06c-1.02-0.33-2.48-0.86-3.69-1.51c-2.01-1.1-1.02-3.02-0.94-3.15  c0.07-0.13,1.25-1.95,3.2-0.76c1.17,0.72,2.36,1.72,3.16,2.44c0.22-0.31,0.46-0.61,0.7-0.91c-0.9-0.58-2.18-1.47-3.17-2.42  c-1.66-1.58-0.2-3.19-0.09-3.29c0.1-0.11,1.71-1.57,3.29,0.09c0.95,1,1.84,2.28,2.42,3.17c0.29-0.24,0.59-0.47,0.9-0.7  c-0.72-0.79-1.72-1.98-2.44-3.16c-1.19-1.95,0.63-3.13,0.76-3.2c0.13-0.08,2.06-1.07,3.15,0.94c0.66,1.21,1.19,2.67,1.51,3.69  C30.81,22.07,31.17,21.92,31.52,21.79z"></path>	<path class="st0" d="M44.56,33.84c0,0,0.03,0.5,0.03,1.17c0,0.6-0.55,0.54-0.55,0.54h-8.1c0,0-2.51-0.09-2.51,2.67  c0,2.96,2.51,2.69,2.51,2.69h6.41v-1.17h-2.22c-0.25,0-0.46-0.21-0.46-0.46v-1.33c0-0.26,0.21-0.46,0.46-0.46h2.75h3.2h0.6  c0.63,0,0.58,0.54,0.58,0.54v7.4c0,0.75-0.6,0.75-0.6,0.75h-11.9c0,0-6.56-0.35-6.56-8.08c0-7.74,6.56-7.82,6.56-7.82h9.17  c0.71,0,0.63,0.65,0.63,0.65V33.84z"></path>	<path class="st1" d="M116.13,26.97c0,0,0.07,1.28,0.07,3.01c0,1.55-1.42,1.38-1.42,1.38H93.94c0,0-6.46-0.22-6.46,6.88  c0,7.63,6.46,6.93,6.46,6.93h16.51v-3.02h-5.72c-0.66,0-1.19-0.53-1.19-1.19v-3.42c0-0.66,0.53-1.19,1.19-1.19h7.09h8.23h1.53  c1.62,0,1.48,1.38,1.48,1.38v19.04c0,1.94-1.55,1.94-1.55,1.94H90.89c0,0-16.88-0.9-16.88-20.81c0-19.91,16.88-20.12,16.88-20.12  h23.62c1.82,0,1.62,1.66,1.62,1.66V26.97z"></path>	<path class="st1" d="M189.02,17.67l12.6,16.94l12.61-16.94h13.27c0,0,1.68-0.07,1.68,1.89v37.13c0,0,0.25,2.12-2.09,2.12h-10.07  c0,0-1.69,0-1.69-1.92V41.76l-12.09,14.46c0,0-0.56,0.99-1.55,1.08c-0.04,0-0.09,0-0.13,0c-0.99-0.08-1.55-1.08-1.55-1.08  l-12.02-14.46v15.13c0,1.92-1.52,1.92-1.52,1.92h-10.15c-2.49,0-2.25-2.12-2.25-2.12V19.56c0-1.95,1.68-1.89,1.68-1.89H189.02z"></path>	<path class="st1" d="M287.15,58.7h0.04h-3.74c-2.07,0-1.82-2.07-1.82-2.07V19.67c0-2.1,1.68-1.93,1.68-1.93h3.87h-0.04h7.51  c0,0,1.68-0.17,1.68,1.93v15.19l10.12-17.12h13.4c0,0,2.49,0.07,1.21,2.73l-12.53,22.52l11.93,12.86c0,0,2.23,2.96-0.81,2.96h-18  l-5.32-7.48v5.31c0,0,0.25,2.07-1.82,2.07H287.15z"></path>	<path class="st1" d="M255.1,30.74l-4.48,10.28l9.05,0.05L255.1,30.74z M247.55,17.74h7.43h0.2h8.14c0.86,0,1.39,0.51,1.57,1.1  l13.94,36.91c0,0,1.35,2.97-1.96,2.97h-9.32c-1.21,0.05-1.79-0.26-2.19-1.38l-2.13-4.82h-16.04l-2.11,4.85  c-0.38,0.81-1.1,1.26-2.14,1.35h-9.66c-3.3,0-1.95-2.97-1.95-2.97l14.75-36.98C246.41,18.09,246.81,17.74,247.55,17.74z"></path>	<path class="st1" d="M148.3,30.74l-4.48,10.28l9.05,0.05L148.3,30.74z M140.76,17.74h7.43h0.2h8.14c0.85,0,1.39,0.51,1.57,1.1  l13.94,36.91c0,0,1.35,2.97-1.95,2.97h-9.32c-1.21,0.05-1.78-0.26-2.19-1.38l-2.13-4.82H140.4l-2.11,4.85  c-0.39,0.81-1.1,1.26-2.14,1.35h-9.66c-3.3,0-1.95-2.97-1.95-2.97l14.75-36.98C139.61,18.09,140.01,17.74,140.76,17.74z"></path>	<g>		<path class="st1" d="M79.35,77.11h2.9l-1.69,6.93h6.17l1.64-6.93h2.9l-4.06,16.62h-2.9l1.73-7.03h-6.17l-1.69,7.03h-2.9   L79.35,77.11z"></path>		<path class="st1" d="M90.65,90.6c0-1.28,0.43-2.45,1.28-3.3c0.88-0.85,2.18-1.35,3.68-1.35c1.19,0,2.18,0.26,3.11,0.59l0.07-0.28   c0.09-0.45,0.17-0.88,0.17-1.26c0-0.95-0.59-1.64-2.21-1.64c-0.97,0-1.92,0.26-2.83,0.67l-0.64-2.28c1.09-0.47,2.4-0.81,3.92-0.81   c2.92,0,4.51,1.31,4.51,3.47c0,0.71-0.14,1.47-0.36,2.3l-1.66,7.03h-2.75l0.38-1.52c-0.9,1.07-2,1.76-3.4,1.76   C91.93,93.97,90.65,92.59,90.65,90.6z M98.08,89.17l0.24-1.02c-0.59-0.24-1.45-0.43-2.23-0.43c-0.83,0-1.47,0.26-1.92,0.71   s-0.71,1.16-0.71,1.88c0,1,0.62,1.66,1.64,1.66C96.56,91.97,97.72,90.64,98.08,89.17z"></path>		<path class="st1" d="M104.06,81.08h2.87l0.47,9.28l4.61-9.28h3.01l-7,12.87c-1.33,2.45-2.49,3.42-4.25,3.42   c-1.02,0-1.95-0.38-2.63-1l1.35-1.92c0.43,0.33,0.88,0.55,1.31,0.55c0.52,0,0.95-0.33,1.47-1.19L104.06,81.08z"></path>		<path class="st1" d="M113.75,90.6c0-1.28,0.43-2.45,1.28-3.3c0.88-0.85,2.18-1.35,3.68-1.35c1.19,0,2.18,0.26,3.11,0.59l0.07-0.28   c0.09-0.45,0.17-0.88,0.17-1.26c0-0.95-0.59-1.64-2.21-1.64c-0.97,0-1.92,0.26-2.83,0.67l-0.64-2.28c1.09-0.47,2.4-0.81,3.92-0.81   c2.92,0,4.51,1.31,4.51,3.47c0,0.71-0.14,1.47-0.36,2.3l-1.66,7.03h-2.75l0.38-1.52c-0.9,1.07-1.99,1.76-3.4,1.76   C115.03,93.97,113.75,92.59,113.75,90.6z M121.18,89.17l0.24-1.02c-0.59-0.24-1.45-0.43-2.23-0.43c-0.83,0-1.47,0.26-1.92,0.71   s-0.71,1.16-0.71,1.88c0,1,0.62,1.66,1.64,1.66C119.66,91.97,120.82,90.64,121.18,89.17z"></path>		<path class="st1" d="M126.64,91.55c0-0.5,0.12-1.02,0.24-1.54l1.57-6.51h-1.42l0.62-2.42h1.4l0.81-3.32h2.83l-0.81,3.32h2.61   l-0.62,2.42h-2.59l-1.59,6.53c-0.05,0.24-0.07,0.48-0.07,0.62c0,0.48,0.36,0.76,0.97,0.76c0.5,0,1.04-0.14,1.5-0.36l-0.59,2.42   c-0.57,0.28-1.33,0.43-2.14,0.43C127.66,93.9,126.64,92.99,126.64,91.55z"></path>		<path class="st1" d="M133.92,90.6c0-1.28,0.43-2.45,1.28-3.3c0.88-0.85,2.18-1.35,3.68-1.35c1.19,0,2.18,0.26,3.11,0.59l0.07-0.28   c0.09-0.45,0.17-0.88,0.17-1.26c0-0.95-0.59-1.64-2.21-1.64c-0.97,0-1.92,0.26-2.83,0.67l-0.64-2.28c1.09-0.47,2.4-0.81,3.92-0.81   c2.92,0,4.51,1.31,4.51,3.47c0,0.71-0.14,1.47-0.36,2.3l-1.66,7.03h-2.75l0.38-1.52c-0.9,1.07-2,1.76-3.4,1.76   C135.21,93.97,133.92,92.59,133.92,90.6z M141.35,89.17l0.24-1.02c-0.59-0.24-1.45-0.43-2.23-0.43c-0.83,0-1.47,0.26-1.92,0.71   s-0.71,1.16-0.71,1.88c0,1,0.62,1.66,1.64,1.66C139.83,91.97,141,90.64,141.35,89.17z"></path>		<path class="st1" d="M155.57,77.11h10.35l-0.67,2.56h-7.48l-1.04,4.42h6.65l-0.67,2.54h-6.65l-1.04,4.53h7.62l-0.69,2.56h-10.45   L155.57,77.11z"></path>		<path class="st1" d="M167.63,81.08h2.8l-0.33,1.47c0.81-0.93,1.88-1.71,3.3-1.71c1.9,0,3.16,1.24,3.16,3.32   c0,0.62-0.17,1.47-0.38,2.37l-1.71,7.19h-2.85l1.76-7.24c0.17-0.59,0.21-1.16,0.21-1.47c0-1.04-0.57-1.61-1.64-1.61   c-1.33,0-2.4,1.19-2.75,2.75l-1.85,7.57h-2.8L167.63,81.08z"></path>		<path class="st1" d="M180.81,88.41v0.19c0,1.9,0.93,3.09,2.52,3.09c1.07,0,1.83-0.38,2.71-1.04l1.24,1.92   c-1.09,0.83-2.4,1.4-4.06,1.4c-3.13,0-5.03-2.07-5.03-5.37c0-2.23,0.9-4.49,2.37-5.96c1.09-1.09,2.47-1.8,4.18-1.8   c2.68,0,4.34,1.92,4.34,4.65c0,0.83-0.14,1.83-0.55,2.92H180.81z M181.09,86.56h5.22c0.12-0.43,0.14-0.74,0.14-1.21   c0-1.24-0.62-2.21-1.92-2.21c-0.81,0-1.52,0.36-2.09,0.93C181.85,84.66,181.38,85.56,181.09,86.56z"></path>		<path class="st1" d="M192.75,81.08h2.8L195,83.35c1.07-1.61,2.35-2.63,4.27-2.49l-0.78,2.94h-0.17c-2.14,0-3.75,1.21-4.46,4.13   l-1.4,5.79h-2.8L192.75,81.08z"></path>		<path class="st1" d="M195.38,97.1l0.59-2.18c0.24,0.07,0.52,0.14,0.81,0.14c0.88,0,1.42-0.55,1.66-1.64l3.02-12.35h2.8   l-3.11,12.77c-0.62,2.54-1.97,3.51-3.96,3.51C196.47,97.36,195.85,97.27,195.38,97.1z M202.48,76.56h2.97l-0.71,2.75h-2.97   L202.48,76.56z"></path>		<path class="st1" d="M207.53,81.08h2.8l-3.09,12.66h-2.83L207.53,81.08z M208.56,76.56h2.99l-0.74,2.75h-2.97L208.56,76.56z"></path>		<path class="st1" d="M218.67,77.11h3.06l0.81,12.54l6.86-12.54h3.21l-9.78,16.74h-2.56L218.67,77.11z"></path>		<path class="st1" d="M233.12,88.41v0.19c0,1.9,0.93,3.09,2.52,3.09c1.07,0,1.83-0.38,2.71-1.04l1.24,1.92   c-1.09,0.83-2.4,1.4-4.06,1.4c-3.13,0-5.03-2.07-5.03-5.37c0-2.23,0.9-4.49,2.37-5.96c1.09-1.09,2.47-1.8,4.18-1.8   c2.68,0,4.34,1.92,4.34,4.65c0,0.83-0.14,1.83-0.55,2.92H233.12z M233.41,86.56h5.22c0.12-0.43,0.14-0.74,0.14-1.21   c0-1.24-0.62-2.21-1.92-2.21c-0.81,0-1.52,0.36-2.09,0.93C234.17,84.66,233.69,85.56,233.41,86.56z"></path>		<path class="st1" d="M245.06,81.08h2.8l-0.55,2.28c1.07-1.61,2.35-2.63,4.27-2.49l-0.78,2.94h-0.17c-2.14,0-3.75,1.21-4.46,4.13   l-1.4,5.79h-2.8L245.06,81.08z"></path>		<path class="st1" d="M253.75,88.41v0.19c0,1.9,0.93,3.09,2.52,3.09c1.07,0,1.83-0.38,2.71-1.04l1.24,1.92   c-1.09,0.83-2.4,1.4-4.06,1.4c-3.13,0-5.03-2.07-5.03-5.37c0-2.23,0.9-4.49,2.37-5.96c1.09-1.09,2.47-1.8,4.18-1.8   c2.68,0,4.34,1.92,4.34,4.65c0,0.83-0.14,1.83-0.55,2.92H253.75z M254.04,86.56h5.22c0.12-0.43,0.14-0.74,0.14-1.21   c0-1.24-0.62-2.21-1.92-2.21c-0.81,0-1.52,0.36-2.09,0.93C254.8,84.66,254.32,85.56,254.04,86.56z"></path>		<path class="st1" d="M265.69,81.08h2.8l-0.33,1.47c0.81-0.93,1.88-1.71,3.3-1.71c1.9,0,3.16,1.24,3.16,3.32   c0,0.62-0.17,1.47-0.38,2.37l-1.71,7.19h-2.85l1.76-7.24c0.17-0.59,0.21-1.16,0.21-1.47c0-1.04-0.57-1.61-1.64-1.61   c-1.33,0-2.4,1.19-2.75,2.75l-1.85,7.57h-2.8L265.69,81.08z"></path>		<path class="st1" d="M282.19,87.2c0-2.87,1.12-5.82,3.09-7.76c1.66-1.64,3.7-2.56,6.1-2.56c2.61,0,4.25,1,5.41,2.26l-2.07,1.99   c-0.88-0.93-1.95-1.61-3.58-1.61c-1.45,0-2.68,0.59-3.73,1.64c-1.38,1.4-2.23,3.75-2.23,5.98c0,2.66,1.64,4.23,3.82,4.23   c0.97,0,1.8-0.24,2.4-0.52l0.93-3.87H289l0.67-2.49h6.05l-2.09,8.24c-1.38,0.78-2.87,1.26-4.82,1.26   C285.42,93.97,282.19,91.69,282.19,87.2z"></path>		<path class="st1" d="M297.38,90.64c0-0.62,0.14-1.47,0.36-2.37l1.73-7.19h2.83l-1.76,7.22c-0.14,0.62-0.21,1.19-0.21,1.47   c0,1.04,0.57,1.64,1.64,1.64c1.33,0,2.42-1.19,2.75-2.75l1.85-7.57h2.83l-3.09,12.66h-2.83l0.36-1.47   c-0.81,0.9-1.88,1.71-3.3,1.71C298.64,93.97,297.38,92.73,297.38,90.64z M301.89,77.02h2.75l-0.69,2.68h-2.73L301.89,77.02z    M306.12,77.02h2.73l-0.69,2.68h-2.75L306.12,77.02z"></path>		<path class="st1" d="M310.75,96.34l2.42-2.68c-1.85-0.67-3.04-2.4-3.04-4.92c0-2.3,0.9-4.58,2.35-6.03   c1.16-1.14,2.56-1.85,4.25-1.85c2.18,0,3.35,0.97,4.18,2.25l-2.09,1.64c-0.55-0.88-1.16-1.47-2.16-1.47   c-0.78,0-1.47,0.36-2.04,0.93c-1.02,1.04-1.69,2.9-1.69,4.46c0,1.9,1,2.9,2.23,2.9c0.9,0,1.54-0.45,2.33-1.09l1.42,1.83   c-1,0.93-2.16,1.64-3.82,1.66l-2.16,3.37L310.75,96.34z"></path>	</g></g></svg>