<svg xmlns="http://www.w3.org/2000/svg" viewBox="0 0 640 360" role="img" aria-hidden="true">
  <defs>
    <linearGradient id="bg" x1="0%" y1="0%" x2="100%" y2="100%">
      <stop offset="0%" stop-color="#ecfdf5"/>
      <stop offset="100%" stop-color="#e0e7ff"/>
    </linearGradient>
  </defs>
  <rect width="640" height="360" rx="20" fill="url(#bg)"/>
  <rect x="40" y="36" width="360" height="288" rx="16" fill="#fff" stroke="#cbd5e1"/>
  <rect x="56" y="56" width="120" height="16" rx="8" fill="#0f172a"/>
  <rect x="56" y="88" width="200" height="10" rx="5" fill="#94a3b8"/>
  <rect x="56" y="120" width="328" height="56" rx="12" fill="#f1f5f9"/>
  <rect x="72" y="136" width="180" height="10" rx="5" fill="#64748b"/>
  <rect x="72" y="154" width="120" height="8" rx="4" fill="#22c55e"/>
  <rect x="56" y="192" width="328" height="56" rx="12" fill="#dcfce7"/>
  <rect x="72" y="208" width="220" height="10" rx="5" fill="#166534"/>
  <rect x="72" y="226" width="140" height="8" rx="4" fill="#22c55e"/>
  <rect x="56" y="264" width="328" height="44" rx="12" fill="#f8fafc" stroke="#e2e8f0"/>
  <circle cx="420" cy="180" r="88" fill="#22c55e" opacity="0.12"/>
  <rect x="432" y="120" width="168" height="120" rx="20" fill="#0f172a"/>
  <text x="452" y="188" font-family="system-ui,sans-serif" font-size="42" fill="#22c55e">=¬</text>
  <text x="452" y="218" font-family="system-ui,sans-serif" font-size="14" font-weight="700" fill="#f8fafc">Team Inbox</text>
</svg>
