<svg xmlns="http://www.w3.org/2000/svg" viewBox="0 0 800 480" role="img" aria-label="Digi System retail POS and weighing scale">
  <defs>
    <linearGradient id="bg" x1="0" y1="0" x2="1" y2="1">
      <stop offset="0%" stop-color="#fdf5f6"/>
      <stop offset="100%" stop-color="#fce8ec"/>
    </linearGradient>
  </defs>
  <rect width="800" height="480" fill="url(#bg)"/>
  <rect x="80" y="120" width="280" height="220" rx="16" fill="#fff" stroke="#c8102e" stroke-width="3"/>
  <rect x="110" y="160" width="220" height="80" rx="8" fill="#1a2b4a"/>
  <text x="220" y="210" fill="#fff" font-family="Arial,sans-serif" font-size="28" text-anchor="middle">0.000 kg</text>
  <rect x="110" y="260" width="90" height="36" rx="6" fill="#c8102e"/>
  <rect x="210" y="260" width="90" height="36" rx="6" fill="#16163f"/>
  <rect x="310" y="260" width="20" height="36" rx="4" fill="#FFDE00"/>
  <rect x="420" y="100" width="300" height="260" rx="16" fill="#fff" stroke="#16163f" stroke-width="3"/>
  <rect x="450" y="130" width="240" height="140" rx="8" fill="#f4f4f4"/>
  <rect x="450" y="290" width="70" height="40" rx="6" fill="#c8102e"/>
  <rect x="530" y="290" width="70" height="40" rx="6" fill="#16163f"/>
  <rect x="610" y="290" width="80" height="40" rx="6" fill="#10B981"/>
  <text x="400" y="60" fill="#16163f" font-family="Arial,sans-serif" font-size="22" font-weight="700" text-anchor="middle">Digi System — Retail Scale &amp; POS</text>
</svg>
